<svg width="16" height="16" viewBox="0 0 16 16" fill="none" xmlns="http://www.w3.org/2000/svg">
<g clip-path="url(#clip0_1_669)">
<path d="M14.6667 8.66665V11.3333C14.6667 13.6666 13.3333 14.6666 11.3333 14.6666H4.66668C2.66668 14.6666 1.33334 13.6666 1.33334 11.3333V8.66665C1.33334 6.89998 2.10001 5.9 3.33334 5.52C3.73334 5.39333 4.18001 5.33331 4.66668 5.33331H11.3333C11.82 5.33331 12.2667 5.39333 12.6667 5.52C13.9 5.9 14.6667 6.89998 14.6667 8.66665Z" stroke="#2E2E2E" stroke-width="1.5" stroke-miterlimit="10" stroke-linecap="round" stroke-linejoin="round"/>
<path d="M12.6667 4.66665V5.52C12.2667 5.39333 11.82 5.33331 11.3333 5.33331H4.66668C4.18001 5.33331 3.73334 5.39333 3.33334 5.52V4.66665C3.33334 3.93331 3.93334 3.33331 4.66668 3.33331H11.3333C12.0667 3.33331 12.6667 3.93331 12.6667 4.66665Z" stroke="#2E2E2E" stroke-width="1.5" stroke-miterlimit="10" stroke-linecap="round" stroke-linejoin="round"/>
<mask id="mask0_1_669" style="mask-type:alpha" maskUnits="userSpaceOnUse" x="4" y="6" width="8" height="8">
<path d="M12 6H4V14H12V6Z" fill="#D9D9D9"/>
</mask>
<g mask="url(#mask0_1_669)">
<path d="M6 8L10 12M6 12L10 8" stroke="#2E2E2E" stroke-width="1.5" stroke-linecap="round" stroke-linejoin="round"/>
</g>
<path d="M10.6667 2.33999V3.33331H5.33334V2.33999C5.33334 1.78665 5.78668 1.33331 6.34002 1.33331H9.66001C10.2133 1.33331 10.6667 1.78665 10.6667 2.33999Z" stroke="#2E2E2E" stroke-width="1.5" stroke-miterlimit="10" stroke-linecap="round" stroke-linejoin="round"/>
</g>
<defs>
<clipPath id="clip0_1_669">
<rect width="16" height="16" fill="white"/>
</clipPath>
</defs>
</svg>
