<svg width="80" height="80" viewBox="0 0 80 80" fill="none" xmlns="http://www.w3.org/2000/svg">
<circle cx="40" cy="40" r="40" fill="#F2F2F2"/>
<mask id="path-2-inside-1_1_689" fill="white">
<path d="M44.0361 22C44.1368 21.9999 44.2358 22.0265 44.3213 22.0771C44.4068 22.1279 44.476 22.2009 44.5205 22.2871L45.9424 25.042H48.0625C48.6181 25.042 49.1509 25.253 49.5439 25.6279C49.937 26.0029 50.1587 26.5115 50.1592 27.042V35.999C50.1586 36.5294 49.9376 37.038 49.5449 37.4131C49.1519 37.7883 48.6183 37.9996 48.0625 38H31.0967C30.5409 37.9996 30.0073 37.7883 29.6143 37.4131C29.2215 37.038 29.0006 36.5294 29 35.999V27.042C29.0005 26.5116 29.2213 26.0029 29.6143 25.6279C30.0073 25.2529 30.541 25.042 31.0967 25.042H33.2178L34.6387 22.2891C34.6831 22.2026 34.7514 22.1292 34.8369 22.0781C34.9225 22.027 35.0221 22.0002 35.123 22H44.0361ZM39.5801 27.3125C37.2937 27.3125 35.4406 29.0957 35.4404 31.2959C35.4404 33.4962 37.2936 35.2803 39.5801 35.2803C41.8665 35.2802 43.7197 33.4962 43.7197 31.2959C43.7196 29.0957 41.8664 27.3125 39.5801 27.3125Z"/>
</mask>
<path d="M44.0361 22C44.1368 21.9999 44.2358 22.0265 44.3213 22.0771C44.4068 22.1279 44.476 22.2009 44.5205 22.2871L45.9424 25.042H48.0625C48.6181 25.042 49.1509 25.253 49.5439 25.6279C49.937 26.0029 50.1587 26.5115 50.1592 27.042V35.999C50.1586 36.5294 49.9376 37.038 49.5449 37.4131C49.1519 37.7883 48.6183 37.9996 48.0625 38H31.0967C30.5409 37.9996 30.0073 37.7883 29.6143 37.4131C29.2215 37.038 29.0006 36.5294 29 35.999V27.042C29.0005 26.5116 29.2213 26.0029 29.6143 25.6279C30.0073 25.2529 30.541 25.042 31.0967 25.042H33.2178L34.6387 22.2891C34.6831 22.2026 34.7514 22.1292 34.8369 22.0781C34.9225 22.027 35.0221 22.0002 35.123 22H44.0361ZM39.5801 27.3125C37.2937 27.3125 35.4406 29.0957 35.4404 31.2959C35.4404 33.4962 37.2936 35.2803 39.5801 35.2803C41.8665 35.2802 43.7197 33.4962 43.7197 31.2959C43.7196 29.0957 41.8664 27.3125 39.5801 27.3125Z" fill="#999999"/>
<path d="M44.0361 22V23L44.0371 23L44.0361 22ZM44.3213 22.0771L44.8319 21.2173L44.8312 21.2169L44.3213 22.0771ZM44.5205 22.2871L43.6319 22.7457L43.6319 22.7458L44.5205 22.2871ZM45.9424 25.042L45.0538 25.5006L45.3332 26.042H45.9424V25.042ZM48.0625 25.042V26.042V25.042ZM49.5439 25.6279L50.2342 24.9044L50.2341 24.9043L49.5439 25.6279ZM50.1592 27.042H51.1592V27.0411L50.1592 27.042ZM50.1592 35.999L51.1592 36.0001V35.999H50.1592ZM49.5449 37.4131L50.2355 38.1364L50.2357 38.1362L49.5449 37.4131ZM48.0625 38V39H48.0633L48.0625 38ZM31.0967 38L31.0959 39H31.0967V38ZM29.6143 37.4131L28.9236 38.1363L28.9237 38.1364L29.6143 37.4131ZM29 35.999H28L28 36.0001L29 35.999ZM29 27.042L28 27.0411V27.042H29ZM29.6143 25.6279L28.924 24.9044L28.9239 24.9045L29.6143 25.6279ZM31.0967 25.042L31.0967 26.042H31.0967V25.042ZM33.2178 25.042V26.042H33.827L34.1064 25.5006L33.2178 25.042ZM34.6387 22.2891L35.5273 22.7477L35.5282 22.7459L34.6387 22.2891ZM34.8369 22.0781L34.3242 21.2196L34.3241 21.2196L34.8369 22.0781ZM35.123 22V21L35.1207 21L35.123 22ZM39.5801 27.3125L39.5801 26.3125H39.5801V27.3125ZM35.4404 31.2959L34.4404 31.2958V31.2959H35.4404ZM39.5801 35.2803V36.2803H39.5801L39.5801 35.2803ZM43.7197 31.2959H44.7197V31.2958L43.7197 31.2959ZM44.0361 22L44.0371 23C43.9627 23.0001 43.8845 22.9807 43.8114 22.9374L44.3213 22.0771L44.8312 21.2169C44.5871 21.0722 44.3109 20.9997 44.0351 21L44.0361 22ZM44.3213 22.0771L43.8107 22.937C43.7392 22.8945 43.6755 22.8302 43.6319 22.7457L44.5205 22.2871L45.4092 21.8285C45.2765 21.5716 45.0743 21.3613 44.8319 21.2173L44.3213 22.0771ZM44.5205 22.2871L43.6319 22.7458L45.0538 25.5006L45.9424 25.042L46.831 24.5833L45.4091 21.8285L44.5205 22.2871ZM45.9424 25.042V26.042H48.0625V25.042V24.042H45.9424V25.042ZM48.0625 25.042V26.042C48.367 26.042 48.6509 26.1581 48.8538 26.3516L49.5439 25.6279L50.2341 24.9043C49.6508 24.348 48.8692 24.042 48.0625 24.042V25.042ZM49.5439 25.6279L48.8537 26.3515C49.0552 26.5437 49.159 26.7936 49.1592 27.0428L50.1592 27.042L51.1592 27.0411C51.1585 26.2293 50.8189 25.4621 50.2342 24.9044L49.5439 25.6279ZM50.1592 27.042H49.1592V35.999H50.1592H51.1592V27.042H50.1592ZM50.1592 35.999L49.1592 35.9979C49.1589 36.2481 49.055 36.4981 48.8542 36.69L49.5449 37.4131L50.2357 38.1362C50.8202 37.5778 51.1583 36.8107 51.1592 36.0001L50.1592 35.999ZM49.5449 37.4131L48.8544 36.6898C48.6519 36.8831 48.3672 36.9998 48.0617 37L48.0625 38L48.0633 39C48.8695 38.9994 49.6519 38.6935 50.2355 38.1364L49.5449 37.4131ZM48.0625 38V37H31.0967V38V39H48.0625V38ZM31.0967 38L31.0975 37C30.792 36.9998 30.5073 36.8831 30.3048 36.6898L29.6143 37.4131L28.9237 38.1364C29.5073 38.6935 30.2897 38.9994 31.0959 39L31.0967 38ZM29.6143 37.4131L30.3049 36.6899C30.1041 36.4981 30.0003 36.2482 30 35.9979L29 35.999L28 36.0001C28.0009 36.8106 28.3389 37.5778 28.9236 38.1363L29.6143 37.4131ZM29 35.999H30V27.042H29H28V35.999H29ZM29 27.042L30 27.0428C30.0002 26.7926 30.104 26.5428 30.3046 26.3514L29.6143 25.6279L28.9239 24.9045C28.3386 25.463 28.0007 26.2306 28 27.0411L29 27.042ZM29.6143 25.6279L30.3045 26.3515C30.5069 26.1584 30.7916 26.042 31.0967 26.042L31.0967 25.042L31.0967 24.042C30.2905 24.042 29.5077 24.3475 28.924 24.9044L29.6143 25.6279ZM31.0967 25.042V26.042H33.2178V25.042V24.042H31.0967V25.042ZM33.2178 25.042L34.1064 25.5006L35.5273 22.7477L34.6387 22.2891L33.7501 21.8304L32.3292 24.5833L33.2178 25.042ZM34.6387 22.2891L35.5282 22.7459C35.4872 22.8257 35.4252 22.8915 35.3498 22.9366L34.8369 22.0781L34.3241 21.2196C34.0777 21.3668 33.8789 21.5795 33.7491 21.8322L34.6387 22.2891ZM34.8369 22.0781L35.3496 22.9367C35.2752 22.9811 35.1975 22.9998 35.1254 23L35.123 22L35.1207 21C34.8467 21.0007 34.5698 21.0729 34.3242 21.2196L34.8369 22.0781ZM35.123 22V23H44.0361V22V21H35.123V22ZM39.5801 27.3125V26.3125C36.778 26.3125 34.4406 28.5075 34.4404 31.2958L35.4404 31.2959L36.4404 31.296C36.4405 29.6839 37.8094 28.3125 39.5801 28.3125V27.3125ZM35.4404 31.2959H34.4404C34.4404 34.0842 36.7777 36.2803 39.5801 36.2803V35.2803V34.2803C37.8096 34.2803 36.4404 32.9083 36.4404 31.2959H35.4404ZM39.5801 35.2803L39.5801 36.2803C42.3825 36.2802 44.7197 34.0841 44.7197 31.2959H43.7197H42.7197C42.7197 32.9083 41.3505 34.2802 39.5801 34.2803L39.5801 35.2803ZM43.7197 31.2959L44.7197 31.2958C44.7195 28.5075 42.3821 26.3125 39.5801 26.3125L39.5801 27.3125L39.5801 28.3125C41.3507 28.3125 42.7196 29.6839 42.7197 31.296L43.7197 31.2959Z" fill="#999999" mask="url(#path-2-inside-1_1_689)"/>
<mask id="path-4-outside-2_1_689" maskUnits="userSpaceOnUse" x="42.64" y="20" width="11" height="11" fill="black">
<rect fill="white" x="42.64" y="20" width="11" height="11"/>
<path fill-rule="evenodd" clip-rule="evenodd" d="M48.32 22C47.9389 22 47.63 22.3089 47.63 22.69V24.8774H45.304C44.9373 24.8774 44.64 25.1747 44.64 25.5414C44.64 25.9081 44.9373 26.2054 45.304 26.2054H47.63V28.3928C47.63 28.7739 47.9389 29.0828 48.32 29.0828C48.7011 29.0828 49.01 28.7739 49.01 28.3928V26.2054H51.336C51.7027 26.2054 52 25.9081 52 25.5414C52 25.1747 51.7027 24.8774 51.336 24.8774H49.01V22.69C49.01 22.3089 48.7011 22 48.32 22Z"/>
</mask>
<path fill-rule="evenodd" clip-rule="evenodd" d="M48.32 22C47.9389 22 47.63 22.3089 47.63 22.69V24.8774H45.304C44.9373 24.8774 44.64 25.1747 44.64 25.5414C44.64 25.9081 44.9373 26.2054 45.304 26.2054H47.63V28.3928C47.63 28.7739 47.9389 29.0828 48.32 29.0828C48.7011 29.0828 49.01 28.7739 49.01 28.3928V26.2054H51.336C51.7027 26.2054 52 25.9081 52 25.5414C52 25.1747 51.7027 24.8774 51.336 24.8774H49.01V22.69C49.01 22.3089 48.7011 22 48.32 22Z" fill="white"/>
<path d="M47.63 24.8774V26.3774H49.13V24.8774H47.63ZM47.63 26.2054H49.13V24.7054H47.63V26.2054ZM49.01 26.2054V24.7054H47.51V26.2054H49.01ZM49.01 24.8774H47.51V26.3774H49.01V24.8774ZM47.63 22.69H49.13C49.13 23.1374 48.7674 23.5 48.32 23.5V22V20.5C47.1105 20.5 46.13 21.4805 46.13 22.69H47.63ZM47.63 24.8774H49.13V22.69H47.63H46.13V24.8774H47.63ZM45.304 24.8774V26.3774H47.63V24.8774V23.3774H45.304V24.8774ZM44.64 25.5414H46.14C46.14 26.0031 45.7657 26.3774 45.304 26.3774V24.8774V23.3774C44.1089 23.3774 43.14 24.3462 43.14 25.5414H44.64ZM45.304 26.2054V24.7054C45.7657 24.7054 46.14 25.0797 46.14 25.5414H44.64H43.14C43.14 26.7365 44.1089 27.7054 45.304 27.7054V26.2054ZM47.63 26.2054V24.7054H45.304V26.2054V27.7054H47.63V26.2054ZM47.63 28.3928H49.13V26.2054H47.63H46.13V28.3928H47.63ZM48.32 29.0828V27.5828C48.7674 27.5828 49.13 27.9454 49.13 28.3928H47.63H46.13C46.13 29.6023 47.1105 30.5828 48.32 30.5828V29.0828ZM49.01 28.3928H47.51C47.51 27.9454 47.8727 27.5828 48.32 27.5828V29.0828V30.5828C49.5295 30.5828 50.51 29.6023 50.51 28.3928H49.01ZM49.01 26.2054H47.51V28.3928H49.01H50.51V26.2054H49.01ZM51.336 26.2054V24.7054H49.01V26.2054V27.7054H51.336V26.2054ZM52 25.5414H50.5C50.5 25.0797 50.8743 24.7054 51.336 24.7054V26.2054V27.7054C52.5312 27.7054 53.5 26.7365 53.5 25.5414H52ZM51.336 24.8774V26.3774C50.8743 26.3774 50.5 26.0031 50.5 25.5414H52H53.5C53.5 24.3462 52.5312 23.3774 51.336 23.3774V24.8774ZM49.01 24.8774V26.3774H51.336V24.8774V23.3774H49.01V24.8774ZM49.01 22.69H47.51V24.8774H49.01H50.51V22.69H49.01ZM48.32 22V23.5C47.8727 23.5 47.51 23.1374 47.51 22.69H49.01H50.51C50.51 21.4805 49.5295 20.5 48.32 20.5V22Z" fill="#999999" mask="url(#path-4-outside-2_1_689)"/>
<path d="M22.4125 45.4492V56.0547H21.1V45.4492H22.4125ZM16.7055 46.2227C18.2992 46.2227 19.4594 47.6758 19.4711 49.9609C19.4594 52.2695 18.2992 53.7109 16.7055 53.7109C15.1 53.7109 13.9398 52.2695 13.9398 49.9609C13.9398 47.6758 15.1 46.2227 16.7055 46.2227ZM16.7055 47.3945C15.8031 47.3945 15.1938 48.3438 15.1938 49.9609C15.1938 51.5898 15.8031 52.5391 16.7055 52.5391C17.5961 52.5391 18.2055 51.5898 18.2055 49.9609C18.2055 48.3438 17.5961 47.3945 16.7055 47.3945ZM29.3327 46.4453V53.4648H24.2936V46.4453H29.3327ZM25.5827 47.4648V52.4219H28.067V47.4648H25.5827ZM32.5436 45.4492V56.0547H31.2311V45.4492H32.5436ZM37.8583 48.4609C37.8583 50.1953 38.8778 52.0234 40.5888 52.7383L39.8739 53.7695C38.62 53.2305 37.7059 52.1172 37.2255 50.7695C36.7333 52.2227 35.8075 53.4414 34.5653 54.0273L33.8153 53.0078C35.4911 52.2344 36.5341 50.2656 36.5341 48.4609V47.5703H34.202V46.4922H40.1786V47.5703H37.8583V48.4609ZM42.6747 45.4492V56.043H41.3622V45.4492H42.6747ZM56.2689 50.3594V51.4258H46.6009V50.3594H56.2689ZM55.1556 48.4844V49.5273H47.7845V45.7891H55.097V46.8438H49.0853V48.4844H55.1556ZM51.4173 52.1641C53.7025 52.1523 55.0736 52.8555 55.0853 54.0859C55.0736 55.3281 53.7025 56.0312 51.4173 56.0312C49.1087 56.0312 47.7259 55.3281 47.7259 54.0859C47.7259 52.8555 49.1087 52.1523 51.4173 52.1641ZM51.4173 53.1602C49.8705 53.1602 49.0384 53.4883 49.0502 54.0859C49.0384 54.707 49.8705 55.0234 51.4173 55.0234C52.9291 55.0234 53.7728 54.707 53.7845 54.0859C53.7728 53.4883 52.9291 53.1602 51.4173 53.1602ZM66.4 51.1797V52.2344H56.7203V51.1797H60.9156V50.3008H57.9508V47.4883H63.9039V46.7031H57.9156V45.6836H65.2047V48.4375H59.2398V49.2812H65.4156V50.3008H62.2047V51.1797H66.4ZM65.2633 52.9023V55.9727H63.9508V53.9336H57.7984V52.9023H65.2633Z" fill="#878787"/>
</svg>
