<svg width="16" height="16" viewBox="0 0 16 16" fill="none" xmlns="http://www.w3.org/2000/svg">
<path d="M11.3333 12.2867H8.66668L5.7 14.26C5.26 14.5533 4.66668 14.24 4.66668 13.7067V12.2867C2.66668 12.2867 1.33334 10.9534 1.33334 8.95337V4.95333C1.33334 2.95333 2.66668 1.62 4.66668 1.62H11.3333C13.3333 1.62 14.6667 2.95333 14.6667 4.95333V8.95337C14.6667 10.9534 13.3333 12.2867 11.3333 12.2867Z" stroke="#2E2E2E" stroke-width="1.5" stroke-miterlimit="10" stroke-linecap="round" stroke-linejoin="round"/>
<path d="M7.99999 7.5733V7.43333C7.99999 6.98 8.28001 6.73998 8.56001 6.54665C8.83334 6.35998 9.10664 6.11999 9.10664 5.67999C9.10664 5.06666 8.61332 4.5733 7.99999 4.5733C7.38666 4.5733 6.89334 5.06666 6.89334 5.67999" stroke="#2E2E2E" stroke-width="1.5" stroke-linecap="round" stroke-linejoin="round"/>
<path d="M7.99702 9.16665H8.00302" stroke="#2E2E2E" stroke-width="1.5" stroke-linecap="round" stroke-linejoin="round"/>
</svg>
